<svg width="35" height="38" viewBox="0 0 35 38" xmlns="http://www.w3.org/2000/svg"><title>CAE8BF9A-0237-48D2-A909-6958AA2DF3E7@2x</title><g fill="#3575D3" fill-rule="nonzero"><path d="M23.84 0H0v32.922h18.196c1.43 2.787 4.328 4.703 7.671 4.703 4.754 0 8.623-3.868 8.623-8.622 0-3.343-1.916-6.24-4.704-7.671V5.946L23.84 0zm.46 2.676l2.81 2.811H24.3v-2.81zm-6.728 28.678H1.568V1.568h21.164v5.487h5.487v13.652c-.05-.014-.101-.019-.15-.032a8.53 8.53 0 0 0-.84-.177c-.097-.016-.193-.032-.29-.045a8.774 8.774 0 0 0-1.072-.073c-4.754 0-8.622 3.869-8.622 8.623 0 .363.03.72.073 1.07.013.098.03.195.045.291.046.287.105.57.179.846.012.048.017.097.03.144zm15.35-2.351a7.063 7.063 0 0 1-7.055 7.054c-2.894 0-5.383-1.752-6.47-4.251a7.153 7.153 0 0 1-.233-.617l-.02-.053a6.838 6.838 0 0 1-.17-.644l-.013-.053a6.906 6.906 0 0 1-.098-.633c-.003-.027-.01-.052-.013-.08a7.063 7.063 0 0 1 7.741-7.742c.022.003.042.008.064.01.219.024.435.057.65.101l.039.01c.221.048.44.105.658.174l.05.02c.21.067.414.144.617.232 2.5 1.087 4.253 3.578 4.253 6.472z"/><path d="M26.651 25.083h-1.568v3.136h-3.135v1.567h3.135v3.136h1.568v-3.136h3.135V28.22h-3.135z"/></g></svg>