<svg width="40" height="39" viewBox="0 0 40 39" xmlns="http://www.w3.org/2000/svg"><title>1196D5CE-9625-4B6A-A674-17437EA0AAE1@2x</title><g fill="none" fill-rule="evenodd"><g stroke="#3575D3" stroke-width="1.5"><path d="M2.612 25.992h.863C6.055 32.6 12.482 37.28 20.003 37.28c9.795 0 17.736-7.94 17.736-17.736S29.798 1.806 20.003 1.806c-7.52 0-13.948 4.68-16.528 11.287h-.863C5.232 6.032 12.03 1 20.002 1c10.241 0 18.543 8.302 18.543 18.543 0 10.24-8.302 18.542-18.542 18.542-7.973 0-14.77-5.032-17.39-12.093z" fill="#3575D3"/><path d="M1.806 13.093H8.256v.806H1V6.643h.806V13.093z" stroke-linecap="square"/></g><path d="M19.14 21.558l4.983 4.984.412.411-1.425 1.426-.412-.412-5.574-5.54V11.48h2.015V21.558z" fill="#3575D3"/></g></svg>