<svg width="37" height="37" viewBox="0 0 37 37" xmlns="http://www.w3.org/2000/svg"><title>D5F46F05-DACF-48A2-AF94-5699774C9930</title><g stroke="#3575D3" stroke-width="1.5" fill="none" fill-rule="evenodd"><path d="M35.826 14.333a3.686 3.686 0 0 1-1.517 2.582L30.15 19.89l-1.338.959-9.21 6.588a1.852 1.852 0 0 1-2.155 0L2.745 16.918a3.686 3.686 0 0 1-1.507-2.485"/><path d="M1.203 15.288v17.27A3.692 3.692 0 0 0 4.9 36.246h27.253a3.692 3.692 0 0 0 3.697-3.688v-17.27a3.685 3.685 0 0 0-1.541-2.998L19.605 1.77a1.852 1.852 0 0 0-2.155 0L2.747 12.29a3.685 3.685 0 0 0-1.544 3v-.002z"/></g></svg>