<svg width="40" height="36" viewBox="0 0 40 36" xmlns="http://www.w3.org/2000/svg"><title>54DC9DD0-ECDB-4E79-AE9E-BAC1C240176F@2x</title><g stroke="#3575D3" stroke-width="1.5" fill="none" fill-rule="evenodd" stroke-linecap="round" stroke-linejoin="round"><path d="M38.55 7.903H1V2.838c0-.865.7-1.565 1.565-1.565h34.42c.864 0 1.564.7 1.564 1.565v5.065z"/><path d="M38.55 7.903H1v25.43c0 1.001.813 1.814 1.815 1.814h33.92a1.815 1.815 0 0 0 1.814-1.815V7.902z"/><path d="M32.422 16.16H28.38l.797-4.212h2.446zM30.4 16.16v6.388M33.334 35.147h-5.867v-10.3a2.298 2.298 0 0 1 2.298-2.299h1.271a2.298 2.298 0 0 1 2.298 2.299v10.3zM6.215 30.6h17.536M6.215 24.805h17.536M6.215 19.011h17.536M6.215 13.217h7.497"/></g></svg>