<svg width="39" height="37" viewBox="0 0 39 37" xmlns="http://www.w3.org/2000/svg"><title>0D06BF0E-A92F-4A12-B814-BBF3CC8E8354</title><g fill="#3575D3" fill-rule="nonzero"><path d="M36.28.749a2.362 2.362 0 0 1 2.37 2.354v30.795a2.362 2.362 0 0 1-2.37 2.353H2.59a2.362 2.362 0 0 1-2.37-2.354V3.105A2.362 2.362 0 0 1 2.59.749h33.69zM2.59 2.07c-.58 0-1.048.464-1.048 1.035v30.792c0 .569.468 1.033 1.048 1.033h33.69a1.04 1.04 0 0 0 1.049-1.032V3.103c0-.569-.468-1.033-1.049-1.033H2.59z"/><path d="M9.905 9.75v25.84a.66.66 0 0 1-1.322 0V9.75H.881a.66.66 0 0 1 0-1.32h37.108a.66.66 0 0 1 0 1.32H9.905zm0 0v-.66a.66.66 0 0 0-1.322 0v.66h1.322zm-6.291 6.308a.66.66 0 1 1 0-1.321h2.362a.66.66 0 0 1 0 1.321H3.614zm0 4.629a.66.66 0 1 1 0-1.322h2.362a.66.66 0 0 1 0 1.322H3.614zm0 4.628a.66.66 0 1 1 0-1.321h2.362a.66.66 0 1 1 0 1.321H3.614zm0 4.628a.66.66 0 0 1 0-1.322h2.362a.66.66 0 0 1 0 1.322H3.614z"/><path d="M23.135 23.307c-2.634 0-4.772-2.119-4.772-4.736 0-2.616 2.138-4.735 4.772-4.735 2.635 0 4.773 2.119 4.773 4.735 0 2.617-2.138 4.736-4.773 4.736zm0-1.322c1.908 0 3.452-1.53 3.452-3.414 0-1.884-1.544-3.414-3.452-3.414-1.907 0-3.45 1.53-3.45 3.414 0 1.884 1.543 3.414 3.45 3.414z"/><path d="M23.131 21.985c.068 0 .068 0 .133.002 2.16.047 3.882 1.855 3.882 4.025v3.267a.66.66 0 0 1-.66.66H19.85a.66.66 0 0 1-.66-.66v-3.27c0-2.181 1.736-4.008 3.902-4.024h.039zm2.694 4.027c0-1.459-1.156-2.673-2.592-2.704l-.103-.001h-.033c-1.422.01-2.586 1.234-2.586 2.702v2.61h5.314v-2.607z"/></g></svg>