<svg width="38" height="33" viewBox="0 0 38 33" xmlns="http://www.w3.org/2000/svg"><title>2C6635DD-255E-4F51-8A07-F70197BE474C@2x</title><g transform="translate(1 1)" fill="none" fill-rule="evenodd"><path d="M33.223 31.157H2.234c-1.24 0-2.066-.826-2.066-2.066V2.234C.168.994.994.168 2.234.168h30.99c1.239 0 2.065.826 2.065 2.066v26.857c0 1.24-.826 2.066-2.066 2.066z" stroke="#3575D3" stroke-width="1.5" stroke-linecap="round" stroke-linejoin="round"/><path d="M13.027 17.108c-.402 0-.671.269-.671.672v2.418l-.94-.94a.65.65 0 0 0-.94 0l-.807.94V17.78c0-.403-.268-.672-.671-.672s-.672.269-.672.672v4.298l.403.403h.538c.134 0 .134-.134.268-.134l1.478-1.612 1.612 1.612h.134s.134 0 .134.134h.537s.135 0 .135-.134c0 0 .134 0 .134-.135v-.134-.134-.135-4.029c0-.403-.269-.672-.672-.672zM19.743 17.108c-.403 0-.671.269-.671.672v2.418l-.94-.94a.65.65 0 0 0-.94 0l-.807.94V17.78c0-.403-.268-.672-.671-.672s-.672.269-.672.672v4.298l.403.403h.537c.135 0 .135-.134.27-.134l1.477-1.612 1.611 1.612h.135s.134 0 .134.134h.537s.135 0 .135-.134c0 0 .134 0 .134-.135v-.134-.134-.135-4.029c0-.403-.269-.672-.672-.672zM26.46 17.108c-.404 0-.672.269-.672.672v2.418l-.94-.94a.65.65 0 0 0-.94 0l-.807.94V17.78c0-.403-.268-.672-.671-.672s-.672.269-.672.672v4.298l.403.403h.537c.135 0 .135-.134.27-.134l1.477-1.612 1.611 1.612h.135s.134 0 .134.134h.537s.135 0 .135-.134c0 0 .134 0 .134-.135v-.134-.134-.135-4.029c0-.403-.269-.672-.672-.672z" fill="#3575D3" fill-rule="nonzero"/><circle fill="#3575D3" fill-rule="nonzero" cx="29.091" cy="4.3" r="1.033"/><circle fill="#3575D3" fill-rule="nonzero" cx="24.959" cy="4.3" r="1.033"/><circle fill="#3575D3" fill-rule="nonzero" cx="20.828" cy="4.3" r="1.033"/><path d="M1.201 8.432h33.055" stroke="#3575D3" stroke-width="1.5" stroke-linecap="round" stroke-linejoin="round"/></g></svg>